<?xml version="1.0" standalone="no"?><svg xmlns="http://www.w3.org/2000/svg" viewBox="0 0 1440 320"><path fill="#0d6efd" fill-opacity="1" d="M0,160L30,181.3C60,203,120,245,180,250.7C240,256,300,224,360,197.3C420,171,480,149,540,165.3C600,181,660,235,720,234.7C780,235,840,181,900,170.7C960,160,1020,192,1080,224C1140,256,1200,288,1260,261.3C1320,235,1380,149,1410,106.7L1440,64L1440,320L1410,320C1380,320,1320,320,1260,320C1200,320,1140,320,1080,320C1020,320,960,320,900,320C840,320,780,320,720,320C660,320,600,320,540,320C480,320,420,320,360,320C300,320,240,320,180,320C120,320,60,320,30,320L0,320Z"></path></svg>