<?xml version="1.0" standalone="no"?>
<svg xmlns:xlink="http://www.w3.org/1999/xlink" id="wave" style="transform:rotate(0deg); transition: 0.3s" viewBox="0 0 1440 180" version="1.1" xmlns="http://www.w3.org/2000/svg"><defs><linearGradient id="sw-gradient-0" x1="0" x2="0" y1="1" y2="0"><stop stop-color="rgba(255, 255, 255, 1)" offset="0%"/><stop stop-color="rgba(255, 255, 255, 1)" offset="100%"/></linearGradient></defs><path style="transform:translate(0, 0px); opacity:1" fill="url(#sw-gradient-0)" d="M0,0L48,21C96,42,192,84,288,96C384,108,480,90,576,69C672,48,768,24,864,30C960,36,1056,72,1152,78C1248,84,1344,60,1440,51C1536,42,1632,48,1728,54C1824,60,1920,66,2016,84C2112,102,2208,132,2304,126C2400,120,2496,78,2592,72C2688,66,2784,96,2880,114C2976,132,3072,138,3168,138C3264,138,3360,132,3456,120C3552,108,3648,90,3744,84C3840,78,3936,84,4032,84C4128,84,4224,78,4320,78C4416,78,4512,84,4608,96C4704,108,4800,126,4896,114C4992,102,5088,60,5184,60C5280,60,5376,102,5472,120C5568,138,5664,132,5760,135C5856,138,5952,150,6048,138C6144,126,6240,90,6336,87C6432,84,6528,114,6624,126C6720,138,6816,132,6864,129L6912,126L6912,180L6864,180C6816,180,6720,180,6624,180C6528,180,6432,180,6336,180C6240,180,6144,180,6048,180C5952,180,5856,180,5760,180C5664,180,5568,180,5472,180C5376,180,5280,180,5184,180C5088,180,4992,180,4896,180C4800,180,4704,180,4608,180C4512,180,4416,180,4320,180C4224,180,4128,180,4032,180C3936,180,3840,180,3744,180C3648,180,3552,180,3456,180C3360,180,3264,180,3168,180C3072,180,2976,180,2880,180C2784,180,2688,180,2592,180C2496,180,2400,180,2304,180C2208,180,2112,180,2016,180C1920,180,1824,180,1728,180C1632,180,1536,180,1440,180C1344,180,1248,180,1152,180C1056,180,960,180,864,180C768,180,672,180,576,180C480,180,384,180,288,180C192,180,96,180,48,180L0,180Z"/></svg>